<?xml version="1.0" encoding="UTF-8" standalone="no"?>
<!-- Generator: Adobe Illustrator 26.5.0, SVG Export Plug-In . SVG Version: 6.00 Build 0)  -->

<svg
   version="1.1"
   x="0px"
   y="0px"
   viewBox="0 0 105 105"
   xml:space="preserve"
   id="svg10"
   sodipodi:docname="Vic logo 128.svg"
   width="105"
   height="105"
   inkscape:version="1.2.1 (9c6d41e410, 2022-07-14)"
   xmlns:inkscape="http://www.inkscape.org/namespaces/inkscape"
   xmlns:sodipodi="http://sodipodi.sourceforge.net/DTD/sodipodi-0.dtd"
   xmlns="http://www.w3.org/2000/svg"
   xmlns:svg="http://www.w3.org/2000/svg"><defs
   id="defs14" /><sodipodi:namedview
   id="namedview12"
   pagecolor="#ffffff"
   bordercolor="#666666"
   borderopacity="1.0"
   inkscape:showpageshadow="2"
   inkscape:pageopacity="0.0"
   inkscape:pagecheckerboard="0"
   inkscape:deskcolor="#d1d1d1"
   showgrid="false"
   inkscape:zoom="8.0234375"
   inkscape:cx="52.907498"
   inkscape:cy="52.284323"
   inkscape:window-width="1493"
   inkscape:window-height="1282"
   inkscape:window-x="26"
   inkscape:window-y="23"
   inkscape:window-maximized="0"
   inkscape:current-layer="svg10" />
<style
   type="text/css"
   id="style2">
	.st0{fill:#FCFCFC;}
	.st1{fill:#231F20;}
</style>
<g
   id="white_circle"
   transform="translate(-11,-12)">
	<circle
   class="st0"
   cx="63.5"
   cy="64.5"
   r="52.5"
   id="circle4" />
</g>
<g
   id="logo_100K"
   transform="translate(-11,-12)">
	<path
   class="st1"
   d="m 76.2,48.5 c 1,0 1.7,-1.5 1.4,-3.2 -0.2,-1.1 -1.1,-2.4 -2.4,-2.1 -0.7,0.1 -1.4,1.1 -1.2,2.5 0.1,1.6 1.1,2.8 2.2,2.8 M 64.9,40.4 c -0.9,0.3 -2.4,0 -3.1,-0.5 -0.9,-0.5 -1.9,-1.9 -1.4,-2.9 0.5,-1 1.7,-1.2 2.7,-0.4 0.9,0.8 1.5,2.5 1.8,3.8 M 53.2,96.3 c 10.4,0 16.2,-12.7 16.8,-28.5 0.2,-6.2 0,-17.6 -1.5,-25.5 2.4,-1 5.6,-2.1 10.7,-2.1 4.2,0 11.2,1.7 11.2,6.9 0,4.4 -4.4,7.4 -6,8.4 -2.9,-0.4 -8.2,0.6 -8.2,2.6 0,2.5 6.4,2.4 9.7,0.7 8.7,2.1 16.3,7.7 16.3,15.6 0,11.7 -12.4,17 -19.7,17 -4.7,0 -8.4,-1.1 -11.9,-2.4 -1.1,0.5 -2.4,2.1 -2.9,3.4 2.5,1.6 9.1,3.1 14.5,3.1 13.9,0 24.3,-9.7 24.3,-21.6 0,-10.4 -10.2,-15.7 -17.6,-17.7 2.5,-2.1 5.4,-5.4 5.2,-9.6 -0.1,-6.9 -8.5,-9.7 -14.8,-9.7 -5.9,0 -8.9,1 -11.7,2.2 -0.2,-1.5 -1.2,-3.6 -2.9,-5 -2.1,-1.7 -5.5,-1.6 -7,0.7 -1.9,2.9 -0.6,6 1.9,7.5 1.5,0.9 3.9,1.2 5.2,1 1.1,6.7 1.2,17.6 1,23.8 -0.3,15.9 -5.4,25.4 -12.1,25.4 -7,0 -7.7,-10.4 -7.6,-19.2 0,-3.9 1.6,-14 1.1,-22.7 C 46.6,39.7 41.7,33 33.1,33 c -7.2,0 -12.7,5.5 -12.7,13 0,5.7 3,9.6 6.9,9.6 3.9,0 6.4,-2.7 6.6,-5.5 -0.2,-1.4 -1.9,-2.9 -3.2,-2.7 -0.2,1.9 -0.6,5 -3.1,5 -2.1,0 -3.4,-3.2 -3.4,-6.2 0,-6.4 4.1,-9.5 8.9,-9.5 4.9,0 9.2,3.2 10.1,13.6 0.6,7.1 -1.4,20.7 -1.4,27.5 0,10.3 3.5,18.5 11.4,18.5"
   id="path7" />
</g>
</svg>
